<?xml version="1.0" encoding="UTF-8"?>
<svg id="Layer_1" data-name="Layer 1" xmlns="http://www.w3.org/2000/svg" viewBox="0 0 2320.45 500.34">
  <defs>
    <style>
      .cls-1 {
        fill: none;
        stroke: #a6ff48;
        stroke-miterlimit: 10;
        stroke-width: 2px;
      }

      .cls-2 {
        fill: #053d3d;
      }

      .cls-3 {
        fill: #a6ff48;
      }
    </style>
  </defs>
  <rect class="cls-2" x="0" y="0" width="2320.45" height="500.34"/>
  <g>
    <g>
      <g>
        <path class="cls-3" d="M277.17,362.94c15.59-15.59,23.41-36.02,23.44-56.46,0-1.22-1.01-2.2-2.22-2.15-45.98,1.62-78.21,33.85-79.83,79.83-.04,1.22.93,2.22,2.15,2.22,20.44-.04,40.86-7.85,56.46-23.44Z"/>
        <path class="cls-3" d="M186.35,356.4c15.59,15.59,23.41,36.02,23.44,56.46,0,1.22-1.01,2.2-2.22,2.15-45.98-1.62-78.21-33.85-79.83-79.83-.04-1.22.93-2.22,2.15-2.22,20.44.04,40.86,7.85,56.46,23.44Z"/>
      </g>
      <g>
        <path class="cls-3" d="M303.48,215.49c1.38.05,2.53-1.06,2.53-2.45-.04-23.24-8.93-46.47-26.66-64.2-17.73-17.73-40.96-26.62-64.2-26.66-1.38,0-2.5,1.14-2.45,2.53,1.85,52.29,38.49,88.93,90.78,90.78Z"/>
        <path class="cls-3" d="M279.35,287.9c17.73-17.73,26.62-40.96,26.66-64.2,0-1.38-1.14-2.5-2.53-2.45-52.29,1.85-88.93,38.49-90.78,90.78-.05,1.38,1.06,2.53,2.45,2.53,23.24-.04,46.47-8.93,64.2-26.66Z"/>
        <path class="cls-3" d="M116.16,221.26c-1.38-.05-2.53,1.06-2.53,2.45.04,23.24,8.93,46.47,26.66,64.2,17.73,17.73,40.96,26.62,64.2,26.66,1.38,0,2.5-1.14,2.45-2.53-1.85-52.29-38.49-88.93-90.78-90.78Z"/>
        <path class="cls-3" d="M206.93,124.71c.05-1.38-1.06-2.53-2.45-2.53-23.24.04-46.47,8.93-64.2,26.66-17.73,17.73-26.62,40.96-26.66,64.2,0,1.38,1.14,2.5,2.53,2.45,52.29-1.85,88.93-38.49,90.78-90.78Z"/>
      </g>
    </g>
    <g>
      <path class="cls-3" d="M448.69,314.65c-14.61,0-28.03-2.36-40.23-7.08-12.21-4.72-22.86-11.45-31.94-20.18-9.09-8.73-16.13-18.89-21.12-30.47-4.99-11.58-7.48-24.41-7.48-38.49s2.49-26.91,7.48-38.49c4.99-11.58,12.07-21.74,21.25-30.47,9.18-8.73,19.87-15.46,32.08-20.18,12.21-4.72,25.8-7.08,40.77-7.08s29.89,2.59,42.64,7.75c12.74,5.17,23.48,12.74,32.21,22.72l-21.92,21.39c-7.31-7.31-15.2-12.7-23.66-16.17-8.47-3.48-17.78-5.21-27.93-5.21s-19.11,1.6-27.4,4.81c-8.29,3.21-15.46,7.75-21.52,13.63-6.06,5.88-10.78,12.83-14.17,20.85-3.39,8.02-5.08,16.84-5.08,26.46s1.69,18.22,5.08,26.33c3.38,8.11,8.11,15.1,14.17,20.98,6.06,5.88,13.19,10.43,21.39,13.63,8.2,3.21,17.28,4.81,27.27,4.81,9.26,0,18.22-1.47,26.87-4.41,8.64-2.94,16.88-7.89,24.73-14.84l19.51,25.93c-9.62,7.84-20.85,13.77-33.68,17.78-12.83,4.01-25.93,6.01-39.3,6.01ZM489.05,286.32v-69.77h32.61v74.31l-32.61-4.54Z"/>
      <path class="cls-3" d="M594.1,313.85c-10.69,0-20.05-1.83-28.07-5.48-8.02-3.65-14.21-8.73-18.58-15.24-4.37-6.5-6.55-13.85-6.55-22.05s1.91-15.24,5.75-21.65c3.83-6.42,10.11-11.49,18.85-15.24,8.73-3.74,20.32-5.61,34.75-5.61h41.43v22.19h-39.03c-11.23,0-18.85,1.83-22.86,5.48-4.01,3.65-6.01,8.25-6.01,13.77,0,5.88,2.41,10.6,7.22,14.17,4.81,3.57,11.5,5.35,20.05,5.35s15.55-1.87,22.05-5.61c6.5-3.74,11.27-9.26,14.3-16.57l5.35,20.05c-3.21,8.38-8.91,14.88-17.11,19.51-8.2,4.64-18.71,6.95-31.54,6.95ZM639.01,311.98v-29.14l-1.6-5.88v-50.52c0-9.8-2.99-17.42-8.96-22.86-5.97-5.43-15.02-8.15-27.13-8.15-7.84,0-15.6,1.25-23.26,3.74-7.66,2.5-14.26,5.97-19.78,10.43l-13.1-24.33c7.84-5.88,17.02-10.33,27.53-13.37,10.51-3.03,21.47-4.54,32.88-4.54,20.85,0,36.89,4.99,48.12,14.97,11.23,9.98,16.84,25.31,16.84,45.98v83.67h-31.54Z"/>
      <path class="cls-3" d="M680.98,197.03v-26.73h95.17v26.73h-95.17ZM753.69,313.85c-15.68,0-27.8-4.05-36.36-12.16-8.55-8.11-12.83-20-12.83-35.69v-128.31h33.15v127.24c0,6.77,1.78,12.03,5.35,15.77,3.56,3.74,8.55,5.61,14.97,5.61,7.31,0,13.37-1.96,18.18-5.88l9.62,23.79c-4.1,3.21-9,5.61-14.7,7.22-5.71,1.6-11.49,2.41-17.38,2.41Z"/>
      <path class="cls-3" d="M880.94,167.36c11.58,0,21.79,2.23,30.61,6.68,8.82,4.46,15.86,11.32,21.12,20.58,5.25,9.27,7.89,21.12,7.89,35.55v81.8h-33.42v-77.52c0-12.65-2.94-22.09-8.82-28.33-5.88-6.24-14.26-9.36-25.13-9.36-7.84,0-14.79,1.6-20.85,4.81-6.06,3.21-10.74,7.98-14.03,14.3-3.3,6.33-4.95,14.3-4.95,23.92v72.18h-33.15V113.63h33.15v94.36l-6.95-12.03c4.81-9.09,11.98-16.13,21.52-21.12,9.53-4.99,20.54-7.49,33.01-7.49Z"/>
      <path class="cls-3" d="M1037.05,313.85c-15.86,0-29.72-3.16-41.57-9.49-11.85-6.32-21.03-14.97-27.53-25.93-6.51-10.96-9.76-23.57-9.76-37.83s3.16-26.87,9.49-37.83c6.32-10.96,15.06-19.6,26.2-25.93,11.14-6.32,23.83-9.49,38.09-9.49s26.29,3.07,37.16,9.22c10.87,6.15,19.42,14.75,25.66,25.8,6.24,11.05,9.36,24.15,9.36,39.3,0,1.25-.05,2.81-.13,4.68-.09,1.87-.22,3.52-.4,4.95h-118.96v-22.19h101.31l-13.37,6.95c.17-8.02-1.47-15.19-4.95-21.52-3.48-6.32-8.25-11.23-14.3-14.7-6.06-3.48-13.19-5.21-21.39-5.21s-15.2,1.74-21.52,5.21c-6.33,3.47-11.19,8.42-14.57,14.84-3.39,6.42-5.08,13.81-5.08,22.19v5.35c0,8.55,1.91,16.13,5.75,22.72,3.83,6.59,9.31,11.72,16.44,15.37,7.13,3.65,15.41,5.48,24.86,5.48,8.02,0,15.24-1.34,21.65-4.01,6.42-2.67,12.12-6.59,17.11-11.76l18.18,20.85c-6.6,7.49-14.75,13.19-24.46,17.11-9.71,3.92-20.81,5.88-33.28,5.88Z"/>
      <path class="cls-3" d="M1123.12,311.98v-142.75h31.81v39.3l-3.74-11.49c4.1-9.62,10.78-16.97,20.05-22.05,9.26-5.08,20.58-7.62,33.95-7.62v31.81c-1.25-.17-2.5-.31-3.74-.4-1.25-.09-2.41-.13-3.48-.13-12.83,0-22.99,3.65-30.47,10.96-7.49,7.31-11.23,18.45-11.23,33.42v68.97h-33.15Z"/>
      <path class="cls-3" d="M1301.15,314.65c-25.49,0-45.49-7.22-60.01-21.65-14.53-14.44-21.79-35.37-21.79-62.82v-105.32h34.75v104.25c0,19.25,4.14,33.24,12.43,41.97,8.29,8.73,20,13.1,35.15,13.1s26.82-4.37,35.02-13.1c8.19-8.73,12.3-22.72,12.3-41.97v-104.25h34.22v105.32c0,27.45-7.26,48.38-21.79,62.82-14.53,14.44-34.62,21.65-60.28,21.65Z"/>
      <path class="cls-3" d="M1403.56,363.84v-194.61h31.81v33.68l-1.34,37.96,2.67,37.96v85.01h-33.15ZM1482.42,313.85c-11.76,0-22.37-2.63-31.81-7.89-9.45-5.25-16.93-13.32-22.46-24.19-5.53-10.87-8.29-24.59-8.29-41.17s2.63-30.52,7.89-41.3c5.25-10.78,12.7-18.8,22.32-24.06,9.62-5.25,20.4-7.89,32.34-7.89,13.9,0,26.29,3.03,37.16,9.09,10.87,6.06,19.47,14.62,25.8,25.66,6.32,11.05,9.49,23.88,9.49,38.49s-3.17,27.67-9.49,38.63c-6.33,10.96-14.93,19.47-25.8,25.53-10.87,6.06-23.26,9.09-37.16,9.09ZM1478.41,285.51c8.2,0,15.46-1.87,21.79-5.61,6.32-3.74,11.36-9,15.1-15.77,3.74-6.77,5.61-14.61,5.61-23.52s-1.87-16.97-5.61-23.66c-3.74-6.68-8.78-11.85-15.1-15.5-6.33-3.65-13.59-5.48-21.79-5.48s-14.97,1.83-21.38,5.48c-6.42,3.66-11.5,8.82-15.24,15.5-3.74,6.68-5.61,14.57-5.61,23.66s1.87,16.75,5.61,23.52c3.74,6.77,8.82,12.03,15.24,15.77,6.42,3.74,13.54,5.61,21.38,5.61Z"/>
    </g>
  </g>
  <g>
    <path class="cls-3" d="M1689.13,205.41l-20.64-54.72h7.09l18.76,50.76h-3.23l19.28-50.76h6.36l19.08,50.76h-3.23l19.07-50.76h6.78l-20.74,54.72h-6.98l-18.35-47.74h2.19l-18.45,47.74h-6.98Z"/>
    <path class="cls-3" d="M1791.28,205.93c-5.7,0-10.7-1.2-15.01-3.6-4.31-2.4-7.68-5.7-10.11-9.9-2.43-4.2-3.65-9.02-3.65-14.44s1.16-10.21,3.49-14.38c2.33-4.17,5.52-7.45,9.59-9.85,4.07-2.4,8.63-3.6,13.71-3.6s9.71,1.16,13.71,3.49c4,2.33,7.14,5.59,9.43,9.8,2.29,4.21,3.44,9.05,3.44,14.54,0,.35-.02.71-.05,1.09-.04.38-.05.78-.05,1.2h-47.63v-5.52h43.67l-2.92,2.19c0-3.96-.85-7.49-2.55-10.58-1.7-3.09-4.01-5.51-6.93-7.24-2.92-1.74-6.29-2.61-10.11-2.61s-7.12.87-10.11,2.61c-2.99,1.74-5.32,4.17-6.98,7.3s-2.5,6.71-2.5,10.74v1.15c0,4.17.92,7.84,2.76,11,1.84,3.16,4.41,5.63,7.71,7.4,3.3,1.77,7.07,2.66,11.31,2.66,3.34,0,6.44-.59,9.33-1.77,2.88-1.18,5.37-2.99,7.45-5.42l4.17,4.79c-2.43,2.92-5.47,5.14-9.12,6.67-3.65,1.53-7.66,2.29-12.04,2.29Z"/>
    <path class="cls-3" d="M1830.99,205.41v-77.34h7.4v77.34h-7.4Z"/>
    <path class="cls-3" d="M1859.03,205.41v-77.34h7.4v77.34h-7.4Z"/>
    <path class="cls-3" d="M1915,150.17c4.45,0,8.35.85,11.73,2.55,3.37,1.7,6.01,4.29,7.92,7.77,1.91,3.48,2.87,7.85,2.87,13.13v31.79h-7.4v-31.06c0-5.77-1.44-10.13-4.33-13.08-2.88-2.95-6.93-4.43-12.14-4.43-3.89,0-7.28.78-10.16,2.35-2.88,1.56-5.11,3.82-6.67,6.77-1.56,2.95-2.34,6.51-2.34,10.68v28.77h-7.4v-54.72h7.09v15.01l-1.15-2.81c1.74-3.96,4.52-7.07,8.34-9.33,3.82-2.26,8.37-3.39,13.66-3.39Z"/>
    <path class="cls-3" d="M1980.77,205.93c-5.7,0-10.7-1.2-15.01-3.6-4.31-2.4-7.68-5.7-10.11-9.9-2.43-4.2-3.65-9.02-3.65-14.44s1.16-10.21,3.49-14.38c2.33-4.17,5.52-7.45,9.59-9.85,4.07-2.4,8.63-3.6,13.71-3.6s9.71,1.16,13.71,3.49c4,2.33,7.14,5.59,9.43,9.8,2.29,4.21,3.44,9.05,3.44,14.54,0,.35-.02.71-.05,1.09-.04.38-.05.78-.05,1.2h-47.63v-5.52h43.67l-2.92,2.19c0-3.96-.85-7.49-2.55-10.58-1.7-3.09-4.01-5.51-6.93-7.24-2.92-1.74-6.29-2.61-10.11-2.61s-7.12.87-10.11,2.61c-2.99,1.74-5.32,4.17-6.98,7.3s-2.5,6.71-2.5,10.74v1.15c0,4.17.92,7.84,2.76,11,1.84,3.16,4.41,5.63,7.71,7.4,3.3,1.77,7.07,2.66,11.31,2.66,3.34,0,6.44-.59,9.33-1.77,2.88-1.18,5.37-2.99,7.45-5.42l4.17,4.79c-2.43,2.92-5.47,5.14-9.12,6.67-3.65,1.53-7.66,2.29-12.04,2.29Z"/>
    <path class="cls-3" d="M2035.18,205.93c-4.52,0-8.79-.64-12.82-1.93-4.03-1.29-7.19-2.9-9.49-4.85l3.34-5.84c2.22,1.67,5.07,3.11,8.55,4.33,3.47,1.22,7.12,1.82,10.94,1.82,5.21,0,8.96-.82,11.26-2.45,2.29-1.63,3.44-3.8,3.44-6.51,0-2.01-.64-3.6-1.93-4.74-1.29-1.15-2.97-2.01-5.06-2.61-2.08-.59-4.41-1.09-6.98-1.51-2.57-.42-5.12-.9-7.66-1.46-2.54-.56-4.85-1.37-6.93-2.45-2.08-1.08-3.77-2.55-5.05-4.43-1.29-1.88-1.93-4.38-1.93-7.5s.83-5.66,2.5-8.03c1.67-2.36,4.12-4.22,7.35-5.58,3.23-1.35,7.17-2.03,11.83-2.03,3.54,0,7.09.47,10.63,1.41,3.54.94,6.46,2.17,8.76,3.7l-3.23,5.94c-2.43-1.67-5.04-2.87-7.82-3.6-2.78-.73-5.56-1.09-8.34-1.09-4.93,0-8.57.85-10.89,2.55-2.33,1.7-3.49,3.87-3.49,6.51,0,2.08.64,3.72,1.93,4.9,1.29,1.18,2.99,2.1,5.11,2.76,2.12.66,4.45,1.2,6.98,1.62,2.54.42,5.07.92,7.61,1.51,2.54.59,4.86,1.39,6.98,2.4,2.12,1.01,3.82,2.43,5.11,4.27,1.29,1.84,1.93,4.26,1.93,7.24,0,3.2-.89,5.96-2.66,8.29-1.77,2.33-4.34,4.14-7.71,5.42-3.37,1.29-7.45,1.93-12.25,1.93Z"/>
    <path class="cls-3" d="M2086.05,205.93c-4.52,0-8.79-.64-12.82-1.93-4.03-1.29-7.19-2.9-9.49-4.85l3.34-5.84c2.22,1.67,5.07,3.11,8.55,4.33,3.47,1.22,7.12,1.82,10.94,1.82,5.21,0,8.96-.82,11.26-2.45,2.29-1.63,3.44-3.8,3.44-6.51,0-2.01-.64-3.6-1.93-4.74-1.29-1.15-2.97-2.01-5.06-2.61-2.08-.59-4.41-1.09-6.98-1.51-2.57-.42-5.12-.9-7.66-1.46-2.54-.56-4.85-1.37-6.93-2.45-2.08-1.08-3.77-2.55-5.05-4.43-1.29-1.88-1.93-4.38-1.93-7.5s.83-5.66,2.5-8.03c1.67-2.36,4.12-4.22,7.35-5.58,3.23-1.35,7.17-2.03,11.83-2.03,3.54,0,7.09.47,10.63,1.41,3.54.94,6.46,2.17,8.76,3.7l-3.23,5.94c-2.43-1.67-5.04-2.87-7.82-3.6-2.78-.73-5.56-1.09-8.34-1.09-4.93,0-8.57.85-10.89,2.55-2.33,1.7-3.49,3.87-3.49,6.51,0,2.08.64,3.72,1.93,4.9,1.29,1.18,2.99,2.1,5.11,2.76,2.12.66,4.45,1.2,6.98,1.62,2.54.42,5.07.92,7.61,1.51,2.54.59,4.86,1.39,6.98,2.4,2.12,1.01,3.82,2.43,5.11,4.27,1.29,1.84,1.93,4.26,1.93,7.24,0,3.2-.89,5.96-2.66,8.29-1.77,2.33-4.34,4.14-7.71,5.42-3.37,1.29-7.45,1.93-12.25,1.93Z"/>
    <path class="cls-3" d="M1669.43,253.84v-6.15h33.88v6.15h-33.88ZM1695.28,302.93c-5.14,0-9.1-1.39-11.88-4.17-2.78-2.78-4.17-6.71-4.17-11.78v-51.39h7.4v50.97c0,3.2.82,5.66,2.45,7.4,1.63,1.74,3.98,2.61,7.04,2.61,3.26,0,5.98-.94,8.13-2.81l2.61,5.32c-1.46,1.32-3.21,2.29-5.26,2.92-2.05.63-4.15.94-6.31.94Z"/>
    <path class="cls-3" d="M1748.23,247.17c4.45,0,8.35.85,11.73,2.55,3.37,1.7,6.01,4.29,7.92,7.77,1.91,3.48,2.87,7.85,2.87,13.13v31.79h-7.4v-31.06c0-5.77-1.44-10.13-4.33-13.08-2.88-2.95-6.93-4.43-12.14-4.43-3.89,0-7.28.78-10.16,2.35-2.88,1.56-5.11,3.82-6.67,6.77-1.56,2.95-2.34,6.51-2.34,10.68v28.77h-7.4v-77.34h7.4v37.63l-1.46-2.81c1.74-3.96,4.52-7.07,8.34-9.33,3.82-2.26,8.37-3.39,13.66-3.39Z"/>
    <path class="cls-3" d="M1806.18,302.93c-4.1,0-7.66-.68-10.68-2.03-3.02-1.35-5.33-3.23-6.93-5.63-1.6-2.4-2.4-5.16-2.4-8.29,0-2.85.68-5.44,2.03-7.77,1.35-2.33,3.58-4.2,6.67-5.63,3.09-1.42,7.24-2.14,12.46-2.14h18.87v5.52h-18.66c-5.28,0-8.95.94-11,2.81-2.05,1.88-3.08,4.21-3.08,6.98,0,3.13,1.21,5.63,3.65,7.5,2.43,1.88,5.84,2.81,10.21,2.81s7.76-.95,10.79-2.87c3.02-1.91,5.23-4.67,6.62-8.29l1.67,5.11c-1.39,3.61-3.8,6.5-7.24,8.65-3.44,2.15-7.77,3.23-12.98,3.23ZM1825.05,302.41v-12.09l-.31-1.98v-20.22c0-4.65-1.3-8.23-3.91-10.74-2.61-2.5-6.48-3.75-11.62-3.75-3.54,0-6.92.59-10.11,1.77-3.2,1.18-5.91,2.75-8.13,4.69l-3.33-5.52c2.78-2.36,6.11-4.19,10.01-5.47,3.89-1.29,7.99-1.93,12.3-1.93,7.09,0,12.56,1.76,16.42,5.26,3.86,3.51,5.79,8.84,5.79,16v33.98h-7.09Z"/>
    <path class="cls-3" d="M1843.71,253.84v-6.15h33.88v6.15h-33.88ZM1869.56,302.93c-5.14,0-9.1-1.39-11.88-4.17-2.78-2.78-4.17-6.71-4.17-11.78v-51.39h7.4v50.97c0,3.2.82,5.66,2.45,7.4,1.63,1.74,3.98,2.61,7.04,2.61,3.26,0,5.98-.94,8.13-2.81l2.61,5.32c-1.46,1.32-3.21,2.29-5.26,2.92-2.05.63-4.15.94-6.31.94Z"/>
    <path class="cls-3" d="M1933.03,302.41l-20.64-54.72h7.09l18.76,50.76h-3.23l19.28-50.76h6.36l19.08,50.76h-3.23l19.07-50.76h6.78l-20.74,54.72h-6.98l-18.35-47.74h2.19l-18.45,47.74h-6.98Z"/>
    <path class="cls-3" d="M2034.24,302.93c-5.35,0-10.11-1.2-14.28-3.6-4.17-2.4-7.47-5.71-9.9-9.95-2.43-4.24-3.65-9.03-3.65-14.38s1.21-10.32,3.65-14.49c2.43-4.17,5.73-7.44,9.9-9.8,4.17-2.36,8.93-3.54,14.28-3.54s10.23,1.2,14.44,3.6c4.2,2.4,7.5,5.66,9.9,9.8,2.4,4.13,3.6,8.95,3.6,14.44s-1.2,10.23-3.6,14.44c-2.4,4.21-5.72,7.5-9.96,9.9-4.24,2.4-9.03,3.6-14.38,3.6ZM2034.24,296.37c3.96,0,7.47-.89,10.53-2.66,3.06-1.77,5.47-4.27,7.24-7.5,1.77-3.23,2.66-6.97,2.66-11.21s-.89-8.06-2.66-11.26c-1.77-3.2-4.19-5.68-7.24-7.45-3.06-1.77-6.53-2.66-10.42-2.66s-7.37.89-10.42,2.66c-3.06,1.77-5.49,4.26-7.3,7.45-1.81,3.2-2.71,6.95-2.71,11.26s.9,7.97,2.71,11.21c1.81,3.23,4.22,5.73,7.24,7.5s6.48,2.66,10.37,2.66Z"/>
    <path class="cls-3" d="M2077.29,302.41v-54.72h7.09v14.91l-.73-2.61c1.53-4.17,4.1-7.35,7.71-9.54,3.61-2.19,8.09-3.28,13.45-3.28v7.19c-.28,0-.56-.02-.83-.05-.28-.03-.56-.05-.83-.05-5.77,0-10.29,1.76-13.55,5.26-3.27,3.51-4.9,8.5-4.9,14.96v27.93h-7.4Z"/>
    <path class="cls-3" d="M2118.25,302.41v-77.34h7.4v77.34h-7.4ZM2124.09,288.24l.21-9.49,34.08-31.06h9.07l-24.08,23.04-4.17,3.54-15.11,13.97ZM2160.68,302.41l-22.83-28.46,4.79-5.73,27.1,34.19h-9.07Z"/>
    <path class="cls-3" d="M2193.93,302.93c-4.52,0-8.79-.64-12.82-1.93-4.03-1.29-7.19-2.9-9.49-4.85l3.34-5.84c2.22,1.67,5.07,3.11,8.55,4.33,3.47,1.22,7.12,1.82,10.94,1.82,5.21,0,8.96-.82,11.26-2.45,2.29-1.63,3.44-3.8,3.44-6.51,0-2.01-.64-3.6-1.93-4.74-1.29-1.15-2.97-2.01-5.06-2.61-2.08-.59-4.41-1.09-6.98-1.51-2.57-.42-5.12-.9-7.66-1.46-2.54-.56-4.85-1.37-6.93-2.45-2.08-1.08-3.77-2.55-5.05-4.43-1.29-1.88-1.93-4.38-1.93-7.5s.83-5.66,2.5-8.03c1.67-2.36,4.12-4.22,7.35-5.58,3.23-1.35,7.17-2.03,11.83-2.03,3.54,0,7.09.47,10.63,1.41,3.54.94,6.46,2.17,8.76,3.7l-3.23,5.94c-2.43-1.67-5.04-2.87-7.82-3.6-2.78-.73-5.56-1.09-8.34-1.09-4.93,0-8.57.85-10.89,2.55-2.33,1.7-3.49,3.87-3.49,6.51,0,2.08.64,3.72,1.93,4.9,1.29,1.18,2.99,2.1,5.11,2.76,2.12.66,4.45,1.2,6.98,1.62,2.54.42,5.07.92,7.61,1.51,2.54.59,4.86,1.39,6.98,2.4,2.12,1.01,3.82,2.43,5.11,4.27,1.29,1.84,1.93,4.26,1.93,7.24,0,3.2-.89,5.96-2.66,8.29-1.77,2.33-4.34,4.14-7.71,5.42-3.37,1.29-7.45,1.93-12.25,1.93Z"/>
  </g>
  <line class="cls-1" x1="1611.68" y1="122.18" x2="1611.68" y2="327.5"/>
  <path class="cls-3" d="M2257.86,293.85c6.04-6.04,9.06-13.95,9.08-21.86,0-.47-.39-.85-.86-.83-17.81.63-30.29,13.11-30.91,30.91-.02.47.36.86.83.86,7.91-.01,15.82-3.04,21.86-9.08Z"/>
</svg>