<?xml version="1.0" encoding="UTF-8"?>
<svg id="Layer_1" data-name="Layer 1" xmlns="http://www.w3.org/2000/svg" viewBox="0 0 1668.49 500.34">
  <defs>
    <style>
      .cls-1 {
        fill: #fff;
      }

      .cls-2 {
        fill: #1a1a1a;
      }
    </style>
  </defs>
  <rect class="cls-1" x="0" y="0" width="1668.49" height="500.34"/>
  <g>
    <g>
      <g>
        <path class="cls-2" d="M277.17,362.94c15.59-15.59,23.41-36.02,23.44-56.46,0-1.22-1.01-2.2-2.22-2.15-45.98,1.62-78.21,33.85-79.83,79.83-.04,1.22.93,2.22,2.15,2.22,20.44-.04,40.86-7.85,56.46-23.44Z"/>
        <path class="cls-2" d="M186.35,356.4c15.59,15.59,23.41,36.02,23.44,56.46,0,1.22-1.01,2.2-2.22,2.15-45.98-1.62-78.21-33.85-79.83-79.83-.04-1.22.93-2.22,2.15-2.22,20.44.04,40.86,7.85,56.46,23.44Z"/>
      </g>
      <g>
        <path class="cls-2" d="M303.48,215.49c1.38.05,2.53-1.06,2.53-2.45-.04-23.24-8.93-46.47-26.66-64.2-17.73-17.73-40.96-26.62-64.2-26.66-1.38,0-2.5,1.14-2.45,2.53,1.85,52.29,38.49,88.93,90.78,90.78Z"/>
        <path class="cls-2" d="M279.35,287.9c17.73-17.73,26.62-40.96,26.66-64.2,0-1.38-1.14-2.5-2.53-2.45-52.29,1.85-88.93,38.49-90.78,90.78-.05,1.38,1.06,2.53,2.45,2.53,23.24-.04,46.47-8.93,64.2-26.66Z"/>
        <path class="cls-2" d="M116.16,221.26c-1.38-.05-2.53,1.06-2.53,2.45.04,23.24,8.93,46.47,26.66,64.2,17.73,17.73,40.96,26.62,64.2,26.66,1.38,0,2.5-1.14,2.45-2.53-1.85-52.29-38.49-88.93-90.78-90.78Z"/>
        <path class="cls-2" d="M206.93,124.71c.05-1.38-1.06-2.53-2.45-2.53-23.24.04-46.47,8.93-64.2,26.66-17.73,17.73-26.62,40.96-26.66,64.2,0,1.38,1.14,2.5,2.53,2.45,52.29-1.85,88.93-38.49,90.78-90.78Z"/>
      </g>
    </g>
    <g>
      <path class="cls-2" d="M448.69,314.65c-14.61,0-28.03-2.36-40.23-7.08-12.21-4.72-22.86-11.45-31.94-20.18-9.09-8.73-16.13-18.89-21.12-30.47-4.99-11.58-7.48-24.41-7.48-38.49s2.49-26.91,7.48-38.49c4.99-11.58,12.07-21.74,21.25-30.47,9.18-8.73,19.87-15.46,32.08-20.18,12.21-4.72,25.8-7.08,40.77-7.08s29.89,2.59,42.64,7.75c12.74,5.17,23.48,12.74,32.21,22.72l-21.92,21.39c-7.31-7.31-15.2-12.7-23.66-16.17-8.47-3.48-17.78-5.21-27.93-5.21s-19.11,1.6-27.4,4.81c-8.29,3.21-15.46,7.75-21.52,13.63-6.06,5.88-10.78,12.83-14.17,20.85-3.39,8.02-5.08,16.84-5.08,26.46s1.69,18.22,5.08,26.33c3.38,8.11,8.11,15.1,14.17,20.98,6.06,5.88,13.19,10.43,21.39,13.63,8.2,3.21,17.28,4.81,27.27,4.81,9.26,0,18.22-1.47,26.87-4.41,8.64-2.94,16.88-7.89,24.73-14.84l19.51,25.93c-9.62,7.84-20.85,13.77-33.68,17.78-12.83,4.01-25.93,6.01-39.3,6.01ZM489.05,286.32v-69.77h32.61v74.31l-32.61-4.54Z"/>
      <path class="cls-2" d="M594.1,313.85c-10.69,0-20.05-1.83-28.07-5.48-8.02-3.65-14.21-8.73-18.58-15.24-4.37-6.5-6.55-13.85-6.55-22.05s1.91-15.24,5.75-21.65c3.83-6.42,10.11-11.49,18.85-15.24,8.73-3.74,20.32-5.61,34.75-5.61h41.43v22.19h-39.03c-11.23,0-18.85,1.83-22.86,5.48-4.01,3.65-6.01,8.25-6.01,13.77,0,5.88,2.41,10.6,7.22,14.17,4.81,3.57,11.5,5.35,20.05,5.35s15.55-1.87,22.05-5.61c6.5-3.74,11.27-9.26,14.3-16.57l5.35,20.05c-3.21,8.38-8.91,14.88-17.11,19.51-8.2,4.64-18.71,6.95-31.54,6.95ZM639.01,311.98v-29.14l-1.6-5.88v-50.52c0-9.8-2.99-17.42-8.96-22.86-5.97-5.43-15.02-8.15-27.13-8.15-7.84,0-15.6,1.25-23.26,3.74-7.66,2.5-14.26,5.97-19.78,10.43l-13.1-24.33c7.84-5.88,17.02-10.33,27.53-13.37,10.51-3.03,21.47-4.54,32.88-4.54,20.85,0,36.89,4.99,48.12,14.97,11.23,9.98,16.84,25.31,16.84,45.98v83.67h-31.54Z"/>
      <path class="cls-2" d="M680.98,197.03v-26.73h95.17v26.73h-95.17ZM753.69,313.85c-15.68,0-27.8-4.05-36.36-12.16-8.55-8.11-12.83-20-12.83-35.69v-128.31h33.15v127.24c0,6.77,1.78,12.03,5.35,15.77,3.56,3.74,8.55,5.61,14.97,5.61,7.31,0,13.37-1.96,18.18-5.88l9.62,23.79c-4.1,3.21-9,5.61-14.7,7.22-5.71,1.6-11.49,2.41-17.38,2.41Z"/>
      <path class="cls-2" d="M880.94,167.36c11.58,0,21.79,2.23,30.61,6.68,8.82,4.46,15.86,11.32,21.12,20.58,5.25,9.27,7.89,21.12,7.89,35.55v81.8h-33.42v-77.52c0-12.65-2.94-22.09-8.82-28.33-5.88-6.24-14.26-9.36-25.13-9.36-7.84,0-14.79,1.6-20.85,4.81-6.06,3.21-10.74,7.98-14.03,14.3-3.3,6.33-4.95,14.3-4.95,23.92v72.18h-33.15V113.63h33.15v94.36l-6.95-12.03c4.81-9.09,11.98-16.13,21.52-21.12,9.53-4.99,20.54-7.49,33.01-7.49Z"/>
      <path class="cls-2" d="M1037.05,313.85c-15.86,0-29.72-3.16-41.57-9.49-11.85-6.32-21.03-14.97-27.53-25.93-6.51-10.96-9.76-23.57-9.76-37.83s3.16-26.87,9.49-37.83c6.32-10.96,15.06-19.6,26.2-25.93,11.14-6.32,23.83-9.49,38.09-9.49s26.29,3.07,37.16,9.22c10.87,6.15,19.42,14.75,25.66,25.8,6.24,11.05,9.36,24.15,9.36,39.3,0,1.25-.05,2.81-.13,4.68-.09,1.87-.22,3.52-.4,4.95h-118.96v-22.19h101.31l-13.37,6.95c.17-8.02-1.47-15.19-4.95-21.52-3.48-6.32-8.25-11.23-14.3-14.7-6.06-3.48-13.19-5.21-21.39-5.21s-15.2,1.74-21.52,5.21c-6.33,3.47-11.19,8.42-14.57,14.84-3.39,6.42-5.08,13.81-5.08,22.19v5.35c0,8.55,1.91,16.13,5.75,22.72,3.83,6.59,9.31,11.72,16.44,15.37,7.13,3.65,15.41,5.48,24.86,5.48,8.02,0,15.24-1.34,21.65-4.01,6.42-2.67,12.12-6.59,17.11-11.76l18.18,20.85c-6.6,7.49-14.75,13.19-24.46,17.11-9.71,3.92-20.81,5.88-33.28,5.88Z"/>
      <path class="cls-2" d="M1123.12,311.98v-142.75h31.81v39.3l-3.74-11.49c4.1-9.62,10.78-16.97,20.05-22.05,9.26-5.08,20.58-7.62,33.95-7.62v31.81c-1.25-.17-2.5-.31-3.74-.4-1.25-.09-2.41-.13-3.48-.13-12.83,0-22.99,3.65-30.47,10.96-7.49,7.31-11.23,18.45-11.23,33.42v68.97h-33.15Z"/>
      <path class="cls-2" d="M1301.15,314.65c-25.49,0-45.49-7.22-60.01-21.65-14.53-14.44-21.79-35.37-21.79-62.82v-105.32h34.75v104.25c0,19.25,4.14,33.24,12.43,41.97,8.29,8.73,20,13.1,35.15,13.1s26.82-4.37,35.02-13.1c8.19-8.73,12.3-22.72,12.3-41.97v-104.25h34.22v105.32c0,27.45-7.26,48.38-21.79,62.82-14.53,14.44-34.62,21.65-60.28,21.65Z"/>
      <path class="cls-2" d="M1403.56,363.84v-194.61h31.81v33.68l-1.34,37.96,2.67,37.96v85.01h-33.15ZM1482.42,313.85c-11.76,0-22.37-2.63-31.81-7.89-9.45-5.25-16.93-13.32-22.46-24.19-5.53-10.87-8.29-24.59-8.29-41.17s2.63-30.52,7.89-41.3c5.25-10.78,12.7-18.8,22.32-24.06,9.62-5.25,20.4-7.89,32.34-7.89,13.9,0,26.29,3.03,37.16,9.09,10.87,6.06,19.47,14.62,25.8,25.66,6.32,11.05,9.49,23.88,9.49,38.49s-3.17,27.67-9.49,38.63c-6.33,10.96-14.93,19.47-25.8,25.53-10.87,6.06-23.26,9.09-37.16,9.09ZM1478.41,285.51c8.2,0,15.46-1.87,21.79-5.61,6.32-3.74,11.36-9,15.1-15.77,3.74-6.77,5.61-14.61,5.61-23.52s-1.87-16.97-5.61-23.66c-3.74-6.68-8.78-11.85-15.1-15.5-6.33-3.65-13.59-5.48-21.79-5.48s-14.97,1.83-21.38,5.48c-6.42,3.66-11.5,8.82-15.24,15.5-3.74,6.68-5.61,14.57-5.61,23.66s1.87,16.75,5.61,23.52c3.74,6.77,8.82,12.03,15.24,15.77,6.42,3.74,13.54,5.61,21.38,5.61Z"/>
    </g>
  </g>
</svg>