<?xml version="1.0" encoding="UTF-8"?>
<svg id="Layer_1" data-name="Layer 1" xmlns="http://www.w3.org/2000/svg" viewBox="0 0 419.64 520.09">
  <defs>
    <style>
      .cls-1 {
        fill: #f2f2f2;
      }
    </style>
  </defs>
  <g>
    <path class="cls-1" d="M277.17,354.39c15.59-15.59,23.41-36.02,23.44-56.46,0-1.22-1.01-2.2-2.22-2.15-45.98,1.62-78.21,33.85-79.83,79.83-.04,1.22.93,2.22,2.15,2.22,20.44-.04,40.86-7.85,56.46-23.44Z"/>
    <path class="cls-1" d="M186.35,347.85c15.59,15.59,23.41,36.02,23.44,56.46,0,1.22-1.01,2.2-2.22,2.15-45.98-1.62-78.21-33.85-79.83-79.83-.04-1.22.93-2.22,2.15-2.22,20.44.04,40.86,7.85,56.46,23.44Z"/>
  </g>
  <g>
    <path class="cls-1" d="M303.48,206.93c1.38.05,2.53-1.06,2.53-2.45-.04-23.24-8.93-46.47-26.66-64.2-17.73-17.73-40.96-26.62-64.2-26.66-1.38,0-2.5,1.14-2.45,2.53,1.85,52.29,38.49,88.93,90.78,90.78Z"/>
    <path class="cls-1" d="M279.35,279.35c17.73-17.73,26.62-40.96,26.66-64.2,0-1.38-1.14-2.5-2.53-2.45-52.29,1.85-88.93,38.49-90.78,90.78-.05,1.38,1.06,2.53,2.45,2.53,23.24-.04,46.47-8.93,64.2-26.66Z"/>
    <path class="cls-1" d="M116.16,212.7c-1.38-.05-2.53,1.06-2.53,2.45.04,23.24,8.93,46.47,26.66,64.2,17.73,17.73,40.96,26.62,64.2,26.66,1.38,0,2.5-1.14,2.45-2.53-1.85-52.29-38.49-88.93-90.78-90.78Z"/>
    <path class="cls-1" d="M206.93,116.16c.05-1.38-1.06-2.53-2.45-2.53-23.24.04-46.47,8.93-64.2,26.66-17.73,17.73-26.62,40.96-26.66,64.2,0,1.38,1.14,2.5,2.53,2.45,52.29-1.85,88.93-38.49,90.78-90.78Z"/>
  </g>
</svg>