<?xml version="1.0" encoding="UTF-8"?>
<svg data-bbox="113.62 113.62 192.39 292.842" viewBox="0 0 419.64 520.09" xmlns="http://www.w3.org/2000/svg" data-type="color">
    <g>
        <path d="M277.17 354.39c15.59-15.59 23.41-36.02 23.44-56.46 0-1.22-1.01-2.2-2.22-2.15-45.98 1.62-78.21 33.85-79.83 79.83-.04 1.22.93 2.22 2.15 2.22 20.44-.04 40.86-7.85 56.46-23.44" fill="#a6ff48" data-color="1"/>
        <path d="M186.35 347.85c15.59 15.59 23.41 36.02 23.44 56.46 0 1.22-1.01 2.2-2.22 2.15-45.98-1.62-78.21-33.85-79.83-79.83-.04-1.22.93-2.22 2.15-2.22 20.44.04 40.86 7.85 56.46 23.44" fill="#a6ff48" data-color="1"/>
        <path d="M303.48 206.93c1.38.05 2.53-1.06 2.53-2.45-.04-23.24-8.93-46.47-26.66-64.2s-40.96-26.62-64.2-26.66c-1.38 0-2.5 1.14-2.45 2.53 1.85 52.29 38.49 88.93 90.78 90.78" fill="#a6ff48" data-color="1"/>
        <path d="M279.35 279.35c17.73-17.73 26.62-40.96 26.66-64.2 0-1.38-1.14-2.5-2.53-2.45-52.29 1.85-88.93 38.49-90.78 90.78a2.447 2.447 0 0 0 2.45 2.53c23.24-.04 46.47-8.93 64.2-26.66" fill="#a6ff48" data-color="1"/>
        <path d="M116.16 212.7a2.447 2.447 0 0 0-2.53 2.45c.04 23.24 8.93 46.47 26.66 64.2s40.96 26.62 64.2 26.66c1.38 0 2.5-1.14 2.45-2.53-1.85-52.29-38.49-88.93-90.78-90.78" fill="#a6ff48" data-color="1"/>
        <path d="M206.93 116.16a2.447 2.447 0 0 0-2.45-2.53c-23.24.04-46.47 8.93-64.2 26.66s-26.62 40.96-26.66 64.2c0 1.38 1.14 2.5 2.53 2.45 52.29-1.85 88.93-38.49 90.78-90.78" fill="#a6ff48" data-color="1"/>
    </g>
</svg>
